<svg width="40" height="36" viewBox="0 0 40 36" fill="none" xmlns="http://www.w3.org/2000/svg">
<path d="M36.5771 13.3215V32.9997C36.5771 34.325 35.4283 35.3997 34.0117 35.3997H5.79209C4.3755 35.3997 3.22667 34.325 3.22667 32.9997C3.22667 14.3965 3.22499 17.8814 3.23228 13.3215H36.5771Z" fill="#E1F4F5"/>
<path d="M36.5772 13.3215V17.8664C36.5772 18.8499 35.7344 19.6647 34.6831 19.6687C34.6714 19.6687 5.1412 19.6687 5.11987 19.6687C4.06885 19.6644 3.22667 18.8496 3.22667 17.8664C3.22667 16.5546 3.22571 17.4602 3.23228 13.3215H36.5772Z" fill="#CAEFF2"/>
<path d="M26.3956 24.6749V35.3998H13.4081V24.6749C13.4081 23.3496 14.557 22.2749 15.9736 22.2749H23.8302C25.2468 22.2749 26.3956 23.3496 26.3956 24.6749Z" fill="#F4FEFF"/>
<path d="M38.5011 13.3215C38.5011 15.7228 36.4197 17.6715 33.8513 17.6715C31.2835 17.6715 29.2015 15.7237 29.2015 13.3215C29.2015 15.7237 27.1195 17.6715 24.5517 17.6715C21.9839 17.6715 19.9019 15.7237 19.9019 13.3215C19.9019 15.7237 17.8199 17.6715 15.2521 17.6715C12.6842 17.6715 10.6022 15.7237 10.6022 13.3215C10.5982 15.708 8.49859 17.6715 5.95241 17.6715C3.40936 17.6715 1.3066 15.7105 1.30259 13.3215C1.30259 9.54093 1.29153 9.77358 1.33065 9.60003C1.36913 9.4297 1.10241 10.0328 5.13629 1.32309C5.33992 0.884345 5.80249 0.600098 6.31317 0.600098H33.4906C34.0012 0.600098 34.4638 0.884345 34.6674 1.32309C38.7043 10.0392 38.4345 9.42955 38.4731 9.60003C38.5121 9.7732 38.5011 9.5368 38.5011 13.3215Z" fill="#CAEFF2"/>
<path d="M38.5011 13.3215C38.5011 15.7227 36.4197 17.6714 33.8513 17.6714C31.2835 17.6714 29.2015 15.7237 29.2015 13.3215C29.2015 15.7237 27.1195 17.6714 24.5517 17.6714C21.9839 17.6714 19.9019 15.7237 19.9019 13.3215C19.9019 15.7237 17.8199 17.6714 15.252 17.6714C12.6842 17.6714 10.6022 15.7237 10.6022 13.3215C10.5982 15.7079 8.49856 17.6714 5.95238 17.6714C3.40933 17.6714 1.30656 15.7104 1.30255 13.3215C1.29622 9.5203 1.29718 9.74837 1.33061 9.6001H38.4731C38.5121 9.77327 38.5011 9.53687 38.5011 13.3215Z" fill="#CAEFF2"/>
<path d="M33.1441 3.8062C25.0007 2.7577 16.7822 4.10253 10.1349 8.78839C9.38665 9.31586 8.47464 9.60011 7.53778 9.60011H1.33075C1.36923 9.42979 1.10251 10.0329 5.13639 1.3231C5.34002 0.884348 5.8026 0.600098 6.31327 0.600098H33.4907C34.0018 0.600098 34.4642 0.884048 34.6674 1.3228L34.8461 1.70845C35.3468 2.78943 34.3917 3.96685 33.1441 3.8062Z" fill="white"/>
<path d="M37.2184 20.325V33C37.2184 34.6542 35.7799 36 34.0117 36H5.79206C4.02385 36 2.58529 34.6542 2.58529 33V20.325C2.58529 19.9937 2.87246 19.725 3.22664 19.725C3.58083 19.725 3.868 19.9937 3.868 20.325V33C3.868 33.9925 4.7311 34.8 5.79206 34.8H12.7668V24.675C12.7668 23.0208 14.2054 21.675 15.9736 21.675H23.8302C25.5984 21.675 27.0369 23.0208 27.0369 24.675V32.4C27.0369 32.7313 26.7498 33 26.3956 33C26.0414 33 25.7542 32.7313 25.7542 32.4V24.675C25.7542 23.6825 24.891 22.875 23.8302 22.875H15.9736C14.9127 22.875 14.0495 23.6825 14.0495 24.675V34.8H19.2605V25.35C19.2605 25.0187 19.5477 24.75 19.9019 24.75C20.2561 24.75 20.5432 25.0187 20.5432 25.35V34.8H34.0117C35.0725 34.8 35.9357 33.9925 35.9357 33V20.325C35.9357 19.9937 36.2229 19.725 36.5771 19.725C36.9313 19.725 37.2184 19.9936 37.2184 20.325ZM4.83003 9.6C4.83003 9.93135 5.1172 10.2 5.47139 10.2C40.3665 10.2 38.6364 10.2584 38.8913 10.0754C39.0246 9.9795 39.1117 9.84112 39.1356 9.68303C39.1714 9.4419 39.4015 10.0349 34.9208 0.361425C34.819 0.141975 34.5879 0 34.3323 0H5.47131C5.21573 0 4.98444 0.14205 4.88286 0.361425L0.714057 9.36143C0.640381 9.52058 0.661145 9.26798 0.661145 13.3224C0.665795 16.0513 3.03937 18.2714 5.95232 18.2714C7.95487 18.2714 9.70248 17.2222 10.6008 15.6797C12.6071 19.129 17.8918 19.1328 19.9018 15.682C21.9102 19.13 27.1925 19.1308 29.2014 15.682C30.0991 17.2232 31.8469 18.2714 33.8512 18.2714C36.7688 18.2714 39.1424 16.0509 39.1424 13.3214C39.1424 12.9901 38.8553 12.7214 38.5011 12.7214C38.1469 12.7214 37.8597 12.9901 37.8597 13.3214C37.8597 15.3892 36.0615 17.0714 33.8512 17.0714C31.641 17.0714 29.8428 15.3892 29.8428 13.3214C29.8428 12.9901 29.5556 12.7214 29.2014 12.7214C28.8472 12.7214 28.5601 12.9901 28.5601 13.3214C28.5601 15.3892 26.7619 17.0714 24.5516 17.0714C22.3413 17.0714 20.5431 15.3892 20.5431 13.3214C20.5431 12.9901 20.256 12.7214 19.9018 12.7214C19.5476 12.7214 19.2604 12.9901 19.2604 13.3214C19.2604 15.3892 17.4622 17.0714 15.252 17.0714C13.0908 17.0714 11.2435 15.4466 11.2435 13.2914C11.2435 12.9601 10.9563 12.6914 10.6021 12.6914C10.248 12.6914 9.96079 12.9601 9.96079 13.2914C9.96079 15.4284 8.12499 17.0714 5.95232 17.0714C3.74558 17.0714 1.9473 15.3887 1.94385 13.3214V9.72435L5.89243 1.2H33.9113L37.5242 9H5.47139C5.11712 9 4.83003 9.26858 4.83003 9.6Z" fill="#52C29D"/>
</svg>
