<svg width="179" height="34" viewBox="0 0 179 34" fill="none" xmlns="http://www.w3.org/2000/svg">
<g filter="url(#filter0_d_10122_58)">
<path d="M11.4147 25.6211C10.7843 26.1123 10.1402 26.1259 9.48235 25.662C8.82452 25.1982 8.60525 24.5843 8.82452 23.8203L11.168 16.2485L5.20649 12.0329C4.54867 11.5691 4.35023 10.9551 4.61116 10.1911C4.871 9.42715 5.39836 9.04516 6.19323 9.04516H13.5526L15.9372 1.18692C16.0743 0.804923 16.287 0.511331 16.5753 0.306144C16.8626 0.102048 17.1707 0 17.4996 0C17.8285 0 18.1366 0.102048 18.4238 0.306144C18.7122 0.511331 18.9249 0.804923 19.0619 1.18692L21.4465 9.04516H28.8059C29.6008 9.04516 30.1287 9.42715 30.3896 10.1911C30.6495 10.9551 30.4505 11.5691 29.7927 12.0329L23.8311 16.2485L26.1746 23.8203C26.3939 24.5843 26.1746 25.1982 25.5168 25.662C24.859 26.1259 24.2149 26.1123 23.5844 25.6211L17.4996 20.9962L11.4147 25.6211Z" fill="#070707"/>
<path d="M47.4147 25.6211C46.7843 26.1123 46.1402 26.1259 45.4823 25.662C44.8245 25.1982 44.6053 24.5843 44.8245 23.8203L47.168 16.2485L41.2065 12.0329C40.5487 11.5691 40.3502 10.9551 40.6112 10.1911C40.871 9.42715 41.3984 9.04516 42.1932 9.04516H49.5526L51.9372 1.18692C52.0743 0.804923 52.287 0.511331 52.5753 0.306144C52.8626 0.102048 53.1707 0 53.4996 0C53.8285 0 54.1366 0.102048 54.4238 0.306144C54.7122 0.511331 54.9249 0.804923 55.0619 1.18692L57.4465 9.04516H64.8059C65.6008 9.04516 66.1287 9.42715 66.3896 10.1911C66.6495 10.9551 66.4505 11.5691 65.7927 12.0329L59.8311 16.2485L62.1746 23.8203C62.3939 24.5843 62.1746 25.1982 61.5168 25.662C60.859 26.1259 60.2149 26.1123 59.5844 25.6211L53.4996 20.9962L47.4147 25.6211Z" fill="#070707"/>
<path d="M83.4147 25.6211C82.7843 26.1123 82.1402 26.1259 81.4823 25.662C80.8245 25.1982 80.6053 24.5843 80.8245 23.8203L83.168 16.2485L77.2065 12.0329C76.5487 11.5691 76.3502 10.9551 76.6112 10.1911C76.871 9.42715 77.3984 9.04516 78.1932 9.04516H85.5526L87.9372 1.18692C88.0743 0.804923 88.287 0.511331 88.5753 0.306144C88.8626 0.102048 89.1707 0 89.4996 0C89.8285 0 90.1366 0.102048 90.4238 0.306144C90.7122 0.511331 90.9249 0.804923 91.0619 1.18692L93.4465 9.04516H100.806C101.601 9.04516 102.129 9.42715 102.39 10.1911C102.649 10.9551 102.45 11.5691 101.793 12.0329L95.8311 16.2485L98.1746 23.8203C98.3939 24.5843 98.1746 25.1982 97.5168 25.662C96.859 26.1259 96.2149 26.1123 95.5844 25.6211L89.4996 20.9962L83.4147 25.6211Z" fill="#070707"/>
<path d="M119.415 25.6211C118.784 26.1123 118.14 26.1259 117.482 25.662C116.825 25.1982 116.605 24.5843 116.825 23.8203L119.168 16.2485L113.206 12.0329C112.549 11.5691 112.35 10.9551 112.611 10.1911C112.871 9.42715 113.398 9.04516 114.193 9.04516H121.553L123.937 1.18692C124.074 0.804923 124.287 0.511331 124.575 0.306144C124.863 0.102048 125.171 0 125.5 0C125.828 0 126.137 0.102048 126.424 0.306144C126.712 0.511331 126.925 0.804923 127.062 1.18692L129.447 9.04516H136.806C137.601 9.04516 138.129 9.42715 138.39 10.1911C138.649 10.9551 138.45 11.5691 137.793 12.0329L131.831 16.2485L134.175 23.8203C134.394 24.5843 134.175 25.1982 133.517 25.662C132.859 26.1259 132.215 26.1123 131.584 25.6211L125.5 20.9962L119.415 25.6211Z" fill="#070707"/>
<path d="M155.415 25.6211C154.784 26.1123 154.14 26.1259 153.482 25.662C152.825 25.1982 152.605 24.5843 152.825 23.8203L155.168 16.2485L149.206 12.0329C148.549 11.5691 148.35 10.9551 148.611 10.1911C148.871 9.42715 149.398 9.04516 150.193 9.04516H157.553L159.937 1.18692C160.074 0.804923 160.287 0.511331 160.575 0.306144C160.863 0.102048 161.171 0 161.5 0C161.828 0 162.137 0.102048 162.424 0.306144C162.712 0.511331 162.925 0.804923 163.062 1.18692L165.447 9.04516H172.806C173.601 9.04516 174.129 9.42715 174.39 10.1911C174.649 10.9551 174.45 11.5691 173.793 12.0329L167.831 16.2485L170.175 23.8203C170.394 24.5843 170.175 25.1982 169.517 25.662C168.859 26.1259 168.215 26.1123 167.584 25.6211L161.5 20.9962L155.415 25.6211Z" fill="#E5E5E5"/>
</g>
<defs>
<filter id="filter0_d_10122_58" x="0.5" y="0" width="178" height="34" filterUnits="userSpaceOnUse" color-interpolation-filters="sRGB">
<feFlood flood-opacity="0" result="BackgroundImageFix"/>
<feColorMatrix in="SourceAlpha" type="matrix" values="0 0 0 0 0 0 0 0 0 0 0 0 0 0 0 0 0 0 127 0" result="hardAlpha"/>
<feOffset dy="4"/>
<feGaussianBlur stdDeviation="2"/>
<feComposite in2="hardAlpha" operator="out"/>
<feColorMatrix type="matrix" values="0 0 0 0 0 0 0 0 0 0 0 0 0 0 0 0 0 0 0.25 0"/>
<feBlend mode="normal" in2="BackgroundImageFix" result="effect1_dropShadow_10122_58"/>
<feBlend mode="normal" in="SourceGraphic" in2="effect1_dropShadow_10122_58" result="shape"/>
</filter>
</defs>
</svg>
